<svg width="263" height="332" viewBox="0 0 263 332" fill="none" xmlns="http://www.w3.org/2000/svg">
<path d="M189.81 41.42C163 38.11 126.66 44.38 100.36 50.81C90.5 53.22 80.67 55.9 71.3 59.78C72.07 58.56 73.27 57.72 74.48 57C77.09 55.46 81.51 53.47 84.37 52.22C90.57 49.52 97.05 47.67 103.36 45.29L75.06 31.99L72.67 32.01C65.42 39.52 57.68 46.6 50.48 54.16C44.7 60.22 39.46 66.28 34.79 73.26C17.62 98.88 1.75 122.25 0 154.23V166.84C1.33 190.76 12.02 215.21 25.08 235.03C25.34 235.43 25 235.91 25.92 235.71C26 234.77 25.92 233.96 25.69 233.05C24.81 229.64 21.9 224.18 20.55 220.46C9.3 189.4 3.02 147.85 30.01 123.03C44.15 110.03 61.85 100.31 77.64 89.48C78.24 89.33 78.04 89.5 78.19 89.87C79.58 93.22 78.17 96.72 75.54 98.99C69.91 103.85 59.99 108.66 53.44 113.38C39.09 123.71 24 137.35 19.53 155.18C16.48 167.35 16.26 179.89 19.26 192.08C19.4 192.63 19.49 193.96 20.11 194.12C20.17 193.25 19.79 192.44 19.76 191.58C19.08 173.79 19.46 158.43 29.19 143.01C39.15 127.2 58.2 115.5 74.92 107.91C76.48 107.2 81.1 104.55 82.18 106.02C84.05 112.42 85.94 119.1 90.39 124.23C89.37 118.73 87.26 113.48 86.4 107.93C84.93 98.51 86.56 91.3 89.28 82.37C89.77 80.77 93.5 70.86 93.12 70.36C85.14 72.94 77.29 76.33 69.25 78.72C68.91 78.82 68.16 79.19 68.22 78.55C78.76 71.38 89.67 64.32 102.07 60.73C108.23 58.95 114.36 58.14 120.75 57.75C120.96 58.54 120.56 58.32 120.32 58.53C117.49 60.96 114.78 62.92 112.22 65.75C97.44 82.1 94.94 105.1 113.25 119.8C112.64 117.7 111.31 115.88 110.47 113.89C106.02 103.38 105.34 92.84 109.93 82.2C110.06 81.91 110.61 79.97 111.21 80.58C115.37 96.35 121.76 112.94 138.17 119.27C147.57 122.9 158.09 123.02 167.84 120.81L151.89 116.47C143.23 113.98 135.42 109.34 130.73 101.48C121.08 85.34 124.02 62.99 145.52 60.55C146.51 60.72 145.65 63.18 145.4 63.77C143.78 67.63 138.25 68.19 135.78 71.37C140.57 71.52 145.52 67.71 149.94 71.03C151.06 71.87 151.51 73.34 152.06 73.78C153.23 74.71 156.23 74.5 156.55 76.4C156.67 77.15 156 78.01 156.58 78.38C161.48 79.13 167.53 76.42 169.23 71.56C170.06 69.19 170.1 65.86 169.91 63.35C169.78 61.54 168.54 58.52 169.13 57.14C169.72 55.75 175.78 52.22 177.39 51.76C180.85 50.77 183.86 52.34 187.46 51.94C192.34 51.39 196.2 46.77 198.89 43.08C195.89 42.43 192.85 41.79 189.81 41.41V41.42ZM152.16 63.2L154.26 67.4C156.1 69.93 158.88 71.36 162.05 71.04C155.64 76.5 149.22 70.68 152.16 63.2ZM161.8 66.53C156.37 67.77 156.02 60.52 159.91 59.85C164.37 59.08 165.08 65.78 161.8 66.53Z" fill="#08224B"/>
<path d="M262.679 28.25L251.599 33.55C251.009 33.59 250.549 33.26 250.049 33.03C245.849 31.2 240.509 27.14 236.089 24.83C199.469 5.7 160.559 2.18 120.019 9.09C116.159 9.75 112.329 10.64 108.489 11.37C108.409 10.88 109.069 10.92 109.429 10.78C112.339 9.64 115.709 8.67 118.729 7.79C133.019 3.63 148.589 0.75 163.409 0.12C167.279 -0.04 171.819 -0.04 175.689 0.12C177.179 0.18 179.039 0.35 180.629 0.46C209.839 2.51 238.069 12.8 262.669 28.25H262.679Z" fill="#08224B"/>
<path d="M205.1 82.7399C193.99 80.1799 182.26 87.1199 178.42 97.6399C177.83 98.0899 177.1 93.8099 177.06 93.3699C176.07 81.9099 181.51 75.1499 189.33 67.7999C195.7 61.8099 207.11 56.2399 202.73 45.8799C202.61 45.5999 202.76 44.8299 202.13 45.1399C201.75 45.3299 200.14 48.4299 199.64 49.1399C189.37 63.8199 172.12 71.6699 173.64 92.3599C173.72 93.5099 175.25 102 175.88 102.1C178.22 101.23 180.98 100.14 182.95 98.6099C186.3 96.0099 186.6 92.7499 191.38 91.3499C193.84 90.6299 200.19 90.2199 202.79 90.4899C207.18 90.9299 209.81 95.2699 207.47 99.2499C205.61 102.41 191.48 110.87 187.51 113.73C178.31 120.36 169.83 128.98 158.89 132.52C150.45 135.25 141.05 135.19 132.35 136.86C134.36 141.33 137.05 145.57 137.99 150.48C140.5 163.59 131.83 173.83 121.26 180.15L124.5 150.83C123.98 150.7 123.76 151.03 123.38 151.24C118.68 153.77 114.34 157.95 109.38 160.44C104.46 162.91 98.9304 164.33 93.4604 164.81L104.65 146.84C106.65 143.1 108.79 139.47 106.94 135.15C101.84 142.5 96.8904 149.56 89.8704 155.25C82.1604 161.5 73.7704 163.74 65.7204 168.96C49.5604 179.45 36.8804 195.96 33.2304 215.25C33.1604 215.6 32.7804 216.37 33.4204 216.29C45.0704 196.47 65.2804 183.12 88.3504 180.84L74.2604 189.76C52.3104 205.08 27.6704 232.46 45.2304 260.25C50.6104 268.76 58.9004 274.89 67.3804 280.05C69.3104 278.41 66.4204 276.26 67.3804 274.26C77.7904 282.48 75.1904 296.66 78.0104 308.3C79.6704 315.17 83.1804 317.8 89.0404 321.15C96.5604 325.45 104.99 328.14 112.93 331.54C105.64 309.44 100.62 285.54 108.92 262.93C113.65 250.05 122.23 239.62 132.37 230.63C115.46 229.48 93.8404 225.99 83.6504 243.14C81.2704 247.14 78.9604 257.65 72.3104 251.95C67.5304 247.85 66.7904 235.61 64.4704 229.95C63.5104 229.23 61.4704 236.99 61.4004 237.62C61.0604 241.01 61.6504 244.91 61.4004 248.36C56.1304 242.4 57.1304 233.91 59.9704 226.99C66.3504 211.47 91.0104 191.51 105.16 182.48C108.35 180.44 111.32 179.05 115.28 179.51C116.11 181.52 115.06 183.02 114.96 184.78C114.76 188.21 115.53 193.04 113.09 195.87C111.49 197.72 108.64 197.17 110.23 200.59C111.36 201.3 116.73 198.77 118.04 198.09C127.51 193.14 135.7 184.05 139.28 173.97C141.66 167.28 140.78 160.28 147.61 156.39C152.24 153.75 156.43 152.31 160.84 148.81C168.52 142.71 171.55 133.17 179.1 126.14C187.18 118.63 208.34 108.14 212.72 100.07C216.11 93.8099 212.18 84.3999 205.1 82.7699V82.7399ZM74.0304 257.54C80.6104 259.2 83.1904 250.09 86.1704 245.64C90.1904 239.64 96.8004 233.68 104.56 233.68H124.18C119.76 237.84 115.14 241.51 111.62 246.53C103.55 258.06 100.28 274.46 99.9404 288.39C99.8004 293.94 101.35 299.45 100.29 304.94L98.6304 298.59C97.5504 278.59 97.3304 256.58 111.04 240.49C111.86 239.52 113.34 238.69 113.6 237.43H105.92C101.65 237.43 94.5204 241.88 91.5804 244.92C88.8204 247.78 82.4304 258.44 79.9404 259.54C77.3404 260.69 76.1604 259.38 74.0204 258.22V257.54H74.0304Z" fill="#08224B"/>
<path d="M161.02 110.08C150.8 110.68 139.79 103.35 136.55 93.6101C136.26 92.7501 135.43 89.9701 135.43 89.2801V84.3401L136.36 88.0101C139.27 99.7301 150.42 106.23 161.02 110.08Z" fill="#08224B"/>
</svg>
